<svg xmlns="http://www.w3.org/900/svg">
  <defs>
    <!-- R Move -->
    <symbol id="R" viewBox="0 0 100 100">
      <text x="50" y="20" font-size="36" font-weight="700" text-anchor="middle" dominant-baseline="middle" fill="currentColor">R</text>
      <rect x="19.0" y="34" width="62" height="62" rx="5" ry="5" fill="white" stroke="currentColor" stroke-width="2"/>
      <line x1="39.3" y1="35.1" x2="39.3" y2="95" stroke="lightgray" stroke-width="1" />
      <line x1="60.6" y1="35.1" x2="60.6" y2="95" stroke="lightgray" stroke-width="1" />
      <line x1="20.0" y1="55.1" x2="79.9" y2="55.1" stroke="lightgray" stroke-width="1" />
      <line x1="20.0" y1="75" x2="79.9" y2="75" stroke="lightgray" stroke-width="1" />
      <line x1="30.0" y1="44.5" x2="30.0" y2="85.5" stroke="currentColor" stroke-width="3" />
      <line x1="50.0" y1="44.5" x2="50.0" y2="85.5" stroke="currentColor" stroke-width="3" />
      <line x1="70.0" y1="44.5" x2="70.0" y2="85.5" stroke="currentColor" stroke-width="3" />
      <polygon points="70.0,40 64.0,50 76.0,50" fill="currentColor" />
    </symbol>
    <!-- R' Move -->
    <symbol id="R-prime" viewBox="0 0 100 100">
      <text x="50" y="20" font-size="36" font-weight="700" text-anchor="middle" dominant-baseline="middle" fill="currentColor">R'</text>
      <rect x="19.0" y="34" width="62" height="62" rx="5" ry="5" fill="white" stroke="currentColor" stroke-width="2"/>
      <line x1="39.3" y1="35.1" x2="39.3" y2="95" stroke="lightgray" stroke-width="1" />
      <line x1="60.6" y1="35.1" x2="60.6" y2="95" stroke="lightgray" stroke-width="1" />
      <line x1="20.0" y1="55.1" x2="79.9" y2="55.1" stroke="lightgray" stroke-width="1" />
      <line x1="20.0" y1="75" x2="79.9" y2="75" stroke="lightgray" stroke-width="1" />
      <line x1="30.0" y1="44.5" x2="30.0" y2="85.5" stroke="currentColor" stroke-width="3" />
      <line x1="50.0" y1="44.5" x2="50.0" y2="85.5" stroke="currentColor" stroke-width="3" />
      <line x1="70.0" y1="44.5" x2="70.0" y2="85.5" stroke="currentColor" stroke-width="3" />
      <polygon points="70.0,88 64.0,78 76.0,78" fill="currentColor" />
    </symbol>
    <!-- R2 Move -->
    <symbol id="R2" viewBox="0 0 100 100">
      <text x="50" y="20" font-size="36" font-weight="700" text-anchor="middle" dominant-baseline="middle" fill="currentColor">R2</text>
      <rect x="19.0" y="34" width="62" height="62" rx="5" ry="5" fill="white" stroke="currentColor" stroke-width="2"/>
      <line x1="39.3" y1="35.1" x2="39.3" y2="95" stroke="lightgray" stroke-width="1" />
      <line x1="60.6" y1="35.1" x2="60.6" y2="95" stroke="lightgray" stroke-width="1" />
      <line x1="20.0" y1="55.1" x2="79.9" y2="55.1" stroke="lightgray" stroke-width="1" />
      <line x1="20.0" y1="75" x2="79.9" y2="75" stroke="lightgray" stroke-width="1" />
      <line x1="30.0" y1="44.5" x2="30.0" y2="85.5" stroke="currentColor" stroke-width="3" />
      <line x1="50.0" y1="44.5" x2="50.0" y2="85.5" stroke="currentColor" stroke-width="3" />
      <line x1="70.0" y1="44.5" x2="70.0" y2="85.5" stroke="currentColor" stroke-width="3" />
      <polygon points="70.0,40 64.0,50 76.0,50" fill="currentColor" />
      <polygon points="70.0,48 64.0,58 76.0,58" fill="currentColor" />
    </symbol>
    <!-- L Move -->
    <symbol id="L" viewBox="0 0 100 100">
      <text x="50" y="20" font-size="36" font-weight="700" text-anchor="middle" dominant-baseline="middle" fill="currentColor">L</text>
      <rect x="19.0" y="34" width="62" height="62" rx="5" ry="5" fill="white" stroke="currentColor" stroke-width="2"/>
      <line x1="39.3" y1="35.1" x2="39.3" y2="95" stroke="lightgray" stroke-width="1" />
      <line x1="60.6" y1="35.1" x2="60.6" y2="95" stroke="lightgray" stroke-width="1" />
      <line x1="20.0" y1="55.1" x2="79.9" y2="55.1" stroke="lightgray" stroke-width="1" />
      <line x1="20.0" y1="75" x2="79.9" y2="75" stroke="lightgray" stroke-width="1" />
      <line x1="30.0" y1="44.5" x2="30.0" y2="85.5" stroke="currentColor" stroke-width="3" />
      <line x1="50.0" y1="44.5" x2="50.0" y2="85.5" stroke="currentColor" stroke-width="3" />
      <line x1="70.0" y1="44.5" x2="70.0" y2="85.5" stroke="currentColor" stroke-width="3" />
      <polygon points="30.0,88 24.0,78 36.0,78" fill="currentColor" />
    </symbol>
    <!-- L' Move -->
    <symbol id="L-prime" viewBox="0 0 100 100">
      <text x="50" y="20" font-size="36" font-weight="700" text-anchor="middle" dominant-baseline="middle" fill="currentColor">L'</text>
      <rect x="19.0" y="34" width="62" height="62" rx="5" ry="5" fill="white" stroke="currentColor" stroke-width="2"/>
      <line x1="39.3" y1="35.1" x2="39.3" y2="95" stroke="lightgray" stroke-width="1" />
      <line x1="60.6" y1="35.1" x2="60.6" y2="95" stroke="lightgray" stroke-width="1" />
      <line x1="20.0" y1="55.1" x2="79.9" y2="55.1" stroke="lightgray" stroke-width="1" />
      <line x1="20.0" y1="75" x2="79.9" y2="75" stroke="lightgray" stroke-width="1" />
      <line x1="30.0" y1="44.5" x2="30.0" y2="85.5" stroke="currentColor" stroke-width="3" />
      <line x1="50.0" y1="44.5" x2="50.0" y2="85.5" stroke="currentColor" stroke-width="3" />
      <line x1="70.0" y1="44.5" x2="70.0" y2="85.5" stroke="currentColor" stroke-width="3" />
      <polygon points="30.0,40 24.0,50 36.0,50" fill="currentColor" />
    </symbol>
    <!-- L2 Move -->
    <symbol id="L2" viewBox="0 0 100 100">
      <text x="50" y="20" font-size="36" font-weight="700" text-anchor="middle" dominant-baseline="middle" fill="currentColor">L2</text>
      <rect x="19.0" y="34" width="62" height="62" rx="5" ry="5" fill="white" stroke="currentColor" stroke-width="2"/>
      <line x1="39.3" y1="35.1" x2="39.3" y2="95" stroke="lightgray" stroke-width="1" />
      <line x1="60.6" y1="35.1" x2="60.6" y2="95" stroke="lightgray" stroke-width="1" />
      <line x1="20.0" y1="45.1" x2="79.9" y2="55.1" stroke="lightgray" stroke-width="1" />
      <line x1="20.0" y1="65" x2="79.9" y2="65" stroke="lightgray" stroke-width="1" />
      <line x1="30.0" y1="44.5" x2="30.0" y2="85.5" stroke="currentColor" stroke-width="3" />
      <line x1="50.0" y1="44.5" x2="50.0" y2="85.5" stroke="currentColor" stroke-width="3" />
      <line x1="70.0" y1="44.5" x2="70.0" y2="85.5" stroke="currentColor" stroke-width="3" />
      <polygon points="30.0,40 24.0,50 36.0,50" fill="currentColor" />
      <polygon points="30.0,48 24.0,58 36.0,58" fill="currentColor" />
    </symbol>
    <!-- U Move -->
    <symbol id="U" viewBox="0 0 100 100">
      <text x="50" y="20" font-size="36" font-weight="700" text-anchor="middle" dominant-baseline="middle" fill="currentColor">U</text>
      <rect x="19.0" y="34" width="62" height="62" rx="5" ry="5" fill="white" stroke="currentColor" stroke-width="2"/>
      <line x1="39.3" y1="35.1" x2="39.3" y2="95" stroke="lightgray" stroke-width="1" />
      <line x1="60.6" y1="35.1" x2="60.6" y2="95" stroke="lightgray" stroke-width="1" />
      <line x1="20.0" y1="55.1" x2="79.9" y2="55.1" stroke="lightgray" stroke-width="1" />
      <line x1="20.0" y1="75" x2="79.9" y2="75" stroke="lightgray" stroke-width="1" />
      <line x1="28.5" y1="45" x2="71.5" y2="45" stroke="currentColor" stroke-width="3" />
      <line x1="28.5" y1="65.0" x2="71.5" y2="65.0" stroke="currentColor" stroke-width="3" />
      <line x1="28.5" y1="84.5" x2="71.5" y2="84.5" stroke="currentColor" stroke-width="3" />
      <polygon points="26.0,45 36.0,39 36.0,51" fill="currentColor" />
    </symbol>
    <!-- U' Move -->
    <symbol id="U-prime" viewBox="0 0 100 100">
      <text x="50" y="20" font-size="36" font-weight="700" text-anchor="middle" dominant-baseline="middle" fill="currentColor">U'</text>
      <rect x="19.0" y="34" width="62" height="62" rx="5" ry="5" fill="white" stroke="currentColor" stroke-width="2"/>
      <line x1="39.3" y1="35.1" x2="39.3" y2="95" stroke="lightgray" stroke-width="1" />
      <line x1="60.6" y1="35.1" x2="60.6" y2="95" stroke="lightgray" stroke-width="1" />
      <line x1="20.0" y1="55.1" x2="79.9" y2="55.1" stroke="lightgray" stroke-width="1" />
      <line x1="20.0" y1="75" x2="79.9" y2="75" stroke="lightgray" stroke-width="1" />
      <line x1="28.5" y1="45" x2="71.5" y2="45" stroke="currentColor" stroke-width="3" />
      <line x1="28.5" y1="65.0" x2="71.5" y2="65.0" stroke="currentColor" stroke-width="3" />
      <line x1="28.5" y1="84.5" x2="71.5" y2="84.5" stroke="currentColor" stroke-width="3" />
      <polygon points="74.0,45 64.0,39 64.0,51" fill="currentColor" />
    </symbol>
    <!-- U2 Move -->
    <symbol id="U2" viewBox="0 0 100 100">
      <text x="50" y="20" font-size="36" font-weight="700" text-anchor="middle" dominant-baseline="middle" fill="currentColor">U2</text>
      <rect x="19.0" y="34" width="62" height="62" rx="5" ry="5" fill="white" stroke="currentColor" stroke-width="2"/>
      <line x1="39.3" y1="35.1" x2="39.3" y2="95" stroke="lightgray" stroke-width="1" />
      <line x1="60.6" y1="35.1" x2="60.6" y2="95" stroke="lightgray" stroke-width="1" />
      <line x1="20.0" y1="55.1" x2="79.9" y2="55.1" stroke="lightgray" stroke-width="1" />
      <line x1="20.0" y1="75" x2="79.9" y2="75" stroke="lightgray" stroke-width="1" />
      <line x1="28.5" y1="45" x2="71.5" y2="45" stroke="currentColor" stroke-width="3" />
      <line x1="28.5" y1="65.0" x2="71.5" y2="65.0" stroke="currentColor" stroke-width="3" />
      <line x1="28.5" y1="84.5" x2="71.5" y2="84.5" stroke="currentColor" stroke-width="3" />
      <polygon points="26.0,45 36.0,39 36.0,51" fill="currentColor" />
      <polygon points="34.0,45 44.0,39 44.0,51" fill="currentColor" />
    </symbol>
    <!-- D Move -->
    <symbol id="D" viewBox="0 0 100 100">
      <text x="50" y="20" font-size="36" font-weight="700" text-anchor="middle" dominant-baseline="middle" fill="currentColor">D</text>
      <rect x="19.0" y="34" width="62" height="62" rx="5" ry="5" fill="white" stroke="currentColor" stroke-width="2"/>
      <line x1="39.3" y1="35.1" x2="39.3" y2="95" stroke="lightgray" stroke-width="1" />
      <line x1="60.6" y1="35.1" x2="60.6" y2="95" stroke="lightgray" stroke-width="1" />
      <line x1="20.0" y1="45.1" x2="79.9" y2="55.1" stroke="lightgray" stroke-width="1" />
      <line x1="20.0" y1="65" x2="79.9" y2="65" stroke="lightgray" stroke-width="1" />
      <line x1="28.5" y1="45" x2="71.5" y2="45" stroke="currentColor" stroke-width="3" />
      <line x1="28.5" y1="65.0" x2="71.5" y2="65.0" stroke="currentColor" stroke-width="3" />
      <line x1="28.5" y1="84.5" x2="71.5" y2="84.5" stroke="currentColor" stroke-width="3" />
      <polygon points="74.0,84.3 64.0,78.3 64.0,90.3" fill="currentColor" />
    </symbol>
    <!-- D' Move -->
    <symbol id="D-prime" viewBox="0 0 100 100">
      <text x="50" y="20" font-size="36" font-weight="700" text-anchor="middle" dominant-baseline="middle" fill="currentColor">D'</text>
      <rect x="19.0" y="34" width="62" height="62" rx="5" ry="5" fill="white" stroke="currentColor" stroke-width="2"/>
      <line x1="39.3" y1="35.1" x2="39.3" y2="95" stroke="lightgray" stroke-width="1" />
      <line x1="60.6" y1="35.1" x2="60.6" y2="95" stroke="lightgray" stroke-width="1" />
      <line x1="20.0" y1="45.1" x2="79.9" y2="55.1" stroke="lightgray" stroke-width="1" />
      <line x1="20.0" y1="65" x2="79.9" y2="65" stroke="lightgray" stroke-width="1" />
      <line x1="28.5" y1="45" x2="71.5" y2="45" stroke="currentColor" stroke-width="3" />
      <line x1="28.5" y1="65.0" x2="71.5" y2="65.0" stroke="currentColor" stroke-width="3" />
      <line x1="28.5" y1="84.5" x2="71.5" y2="84.5" stroke="currentColor" stroke-width="3" />
      <polygon points="26.0,84.3 36.0,78.3 36.0,90.3" fill="currentColor" />
    </symbol>
    <!-- D2 Move -->
    <symbol id="D2" viewBox="0 0 100 100">
      <text x="50" y="20" font-size="36" font-weight="700" text-anchor="middle" dominant-baseline="middle" fill="currentColor">D2</text>
      <rect x="19.0" y="34" width="62" height="62" rx="5" ry="5" fill="white" stroke="currentColor" stroke-width="2"/>
      <line x1="39.3" y1="35.1" x2="39.3" y2="95" stroke="lightgray" stroke-width="1" />
      <line x1="60.6" y1="35.1" x2="60.6" y2="95" stroke="lightgray" stroke-width="1" />
      <line x1="20.0" y1="45.1" x2="79.9" y2="55.1" stroke="lightgray" stroke-width="1" />
      <line x1="20.0" y1="65" x2="79.9" y2="65" stroke="lightgray" stroke-width="1" />
      <line x1="28.5" y1="45" x2="71.5" y2="45" stroke="currentColor" stroke-width="3" />
      <line x1="28.5" y1="65.0" x2="71.5" y2="65.0" stroke="currentColor" stroke-width="3" />
      <line x1="28.5" y1="84.5" x2="71.5" y2="84.5" stroke="currentColor" stroke-width="3" />
      <polygon points="66.0,84.3 56.0,78.3 56.0,90.3" fill="currentColor" />
      <polygon points="74.0,84.3 64.0,78.3 64.0,90.3" fill="currentColor" />
    </symbol>
    <!-- F Move -->
    <symbol id="F" viewBox="0 0 100 100">
      <text x="50" y="20" font-size="36" font-weight="700" text-anchor="middle" dominant-baseline="middle" fill="currentColor">F</text>
      <rect x="19.0" y="34" width="62" height="62" rx="5" ry="5" fill="white" stroke="currentColor" stroke-width="2"/>
      <line x1="39.3" y1="35.1" x2="39.3" y2="95" stroke="lightgray" stroke-width="1" />
      <line x1="60.6" y1="35.1" x2="60.6" y2="95" stroke="lightgray" stroke-width="1" />
      <line x1="20.0" y1="55.1" x2="79.9" y2="55.1" stroke="lightgray" stroke-width="1" />
      <line x1="20.0" y1="75" x2="79.9" y2="75" stroke="lightgray" stroke-width="1" />
      <path d="M 50.0 82.92 A 35.9 17.92 18.0 1 19.0 49.92 65.0" stroke="currentColor" stroke-width="3" fill="none" />
      <polygon points="67.5,73 61.5,63 73.5,63" fill="currentColor" />
    </symbol>
    <!-- F' Move -->
    <symbol id="F-prime" viewBox="0 0 100 100">
      <text x="50" y="20" font-size="36" font-weight="700" text-anchor="middle" dominant-baseline="middle" fill="currentColor">F'</text>
      <rect x="19.0" y="34" width="62" height="62" rx="5" ry="5" fill="white" stroke="currentColor" stroke-width="2"/>
      <line x1="39.3" y1="35.1" x2="39.3" y2="95" stroke="lightgray" stroke-width="1" />
      <line x1="60.6" y1="35.1" x2="60.6" y2="95" stroke="lightgray" stroke-width="1" />
      <line x1="20.0" y1="55.1" x2="79.9" y2="55.1" stroke="lightgray" stroke-width="1" />
      <line x1="20.0" y1="75" x2="79.9" y2="75" stroke="lightgray" stroke-width="1" />
      <path d="M 50.0 82.92 A 35.9 17.92 18.0 1 18.0 14.08 65.0" stroke="currentColor" stroke-width="3" fill="none" />
      <polygon points="32.0,73 26.0,63 38.0,63" fill="currentColor" />
    </symbol>
    <!-- F2 Move -->
    <symbol id="F2" viewBox="0 0 100 100">
      <text x="50" y="20" font-size="36" font-weight="700" text-anchor="middle" dominant-baseline="middle" fill="currentColor">F2</text>
      <rect x="19.0" y="34" width="62" height="62" rx="5" ry="5" fill="white" stroke="currentColor" stroke-width="2"/>
      <line x1="39.3" y1="35.1" x2="39.3" y2="95" stroke="lightgray" stroke-width="1" />
      <line x1="60.6" y1="35.1" x2="60.6" y2="95" stroke="lightgray" stroke-width="1" />
      <path d="M 50.0 82.92 A 35.9 17.92 18.0 1 19.0 49.92 65.0" stroke="currentColor" stroke-width="3" fill="none" />
      <polygon points="67.0,67 61.0,57 73.0,57" fill="currentColor" />
      <polygon points="67.5,74 61.5,64 73.5,64" fill="currentColor" />
    </symbol>
    <!-- B Move -->
    <symbol id="B" viewBox="0 0 100 100">
      <text x="50" y="20" font-size="36" font-weight="700" text-anchor="middle" dominant-baseline="middle" fill="currentColor">B</text>
      <rect x="19.0" y="34" width="62" height="62" rx="5" ry="5" fill="white" stroke="currentColor" stroke-dasharray="4,3" stroke-width="2"/>
      <line x1="39.3" y1="35.1" x2="39.3" y2="95" stroke="lightgray" stroke-width="1" />
      <line x1="60.6" y1="35.1" x2="60.6" y2="95" stroke="lightgray" stroke-width="1" />
      <line x1="20.0" y1="45.1" x2="79.9" y2="55.1" stroke="lightgray" stroke-width="1" />
      <line x1="20.0" y1="65" x2="79.9" y2="65" stroke="lightgray" stroke-width="1" />
      <path d="M 50.0 82.92 A 35.9 17.92 18.0 1 18.0 14.08 65.0" stroke="currentColor" stroke-width="3" fill="none" />
      <polygon points="32.0,73 26.0,63 38.0,63" fill="currentColor" />
    </symbol>
    <!-- B' Move -->
    <symbol id="B-prime" viewBox="0 0 100 100">
      <text x="50" y="20" font-size="36" font-weight="700" text-anchor="middle" dominant-baseline="middle" fill="currentColor">B'</text>
      <rect x="19.0" y="34" width="62" height="62" rx="5" ry="5" fill="white" stroke="currentColor" stroke-dasharray="4,3" stroke-width="2"/>
      <line x1="39.3" y1="35.1" x2="39.3" y2="95" stroke="lightgray" stroke-width="1" />
      <line x1="60.6" y1="35.1" x2="60.6" y2="95" stroke="lightgray" stroke-width="1" />
      <line x1="20.0" y1="45.1" x2="79.9" y2="55.1" stroke="lightgray" stroke-width="1" />
      <line x1="20.0" y1="65" x2="79.9" y2="65" stroke="lightgray" stroke-width="1" />
      <path d="M 50.0 72.92 A 35.9 17.92 18.0 1 19.0 49.92 55.0" stroke="currentColor" stroke-width="3" fill="none" />
      <polygon points="67.5,63 61.5,53 73.5,53" fill="currentColor" />
    </symbol>
    <!-- B2 Move -->
    <symbol id="B2" viewBox="0 0 100 100">
      <text x="50" y="20" font-size="36" font-weight="700" text-anchor="middle" dominant-baseline="middle" fill="currentColor">B2</text>
      <rect x="19.0" y="34" width="62" height="62" rx="5" ry="5" fill="white" stroke="currentColor" stroke-dasharray="4,3" stroke-width="2"/>
      <line x1="39.3" y1="35.1" x2="39.3" y2="95" stroke="lightgray" stroke-width="1" />
      <line x1="60.6" y1="35.1" x2="60.6" y2="95" stroke="lightgray" stroke-width="1" />
      <line x1="20.0" y1="45.1" x2="79.9" y2="55.1" stroke="lightgray" stroke-width="1" />
      <line x1="20.0" y1="65" x2="79.9" y2="65" stroke="lightgray" stroke-width="1" />
      <path d="M 50.0 72.92 A 35.9 17.92 18.0 1 18.0 14.08 55.0" stroke="currentColor" stroke-width="3" fill="none" />
      <polygon points="32.0,57 26.0,47 38.0,47" fill="currentColor" />
      <polygon points="32.0,64 26.0,54 38.0,54" fill="currentColor" />
    </symbol>
  </defs>
</svg>